HIERARCHY
ROOT Hips
{
	OFFSET -0.001795 -0.223333 0.028219
	CHANNELS 6 Xposition Yposition Zposition Zrotation Yrotation Xrotation 
	JOINT LeftUpLeg
	{
		OFFSET 0.069520 -0.091406 -0.006815
		CHANNELS 3 Zrotation Yrotation Xrotation
		JOINT LeftLeg
		{
			OFFSET 0.034277 -0.375199 -0.004496
			CHANNELS 3 Zrotation Yrotation Xrotation
			JOINT LeftFoot
			{
				OFFSET -0.013596 -0.397961 -0.043693
				CHANNELS 3 Zrotation Yrotation Xrotation
				JOINT LeftToe
				{
					OFFSET 0.026358 -0.055791 0.119288
					CHANNELS 3 Zrotation Yrotation Xrotation
					End Site
					{
						OFFSET 0.000000 0.000000 0.000000
					}
				}
			}
		}
	}
	JOINT RightUpLeg
	{
		OFFSET -0.067670 -0.090522 -0.004320
		CHANNELS 3 Zrotation Yrotation Xrotation
		JOINT RightLeg
		{
			OFFSET -0.038290 -0.382569 -0.008850
			CHANNELS 3 Zrotation Yrotation Xrotation
			JOINT RightFoot
			{
				OFFSET 0.015774 -0.398415 -0.042312
				CHANNELS 3 Zrotation Yrotation Xrotation
				JOINT RightToe
				{
					OFFSET -0.025372 -0.048144 0.123348
					CHANNELS 3 Zrotation Yrotation Xrotation
					End Site
					{
						OFFSET 0.000000 0.000000 0.000000
					}
				}
			}
		}
	}
	JOINT Spine
	{
		OFFSET -0.002533 0.108963 -0.026696
		CHANNELS 3 Zrotation Yrotation Xrotation
		JOINT Spine1
		{
			OFFSET 0.005487 0.135180 0.001092
			CHANNELS 3 Zrotation Yrotation Xrotation
			JOINT Spine2
			{
				OFFSET 0.001457 0.052922 0.025425
				CHANNELS 3 Zrotation Yrotation Xrotation
				JOINT Neck
				{
					OFFSET -0.002778 0.213870 -0.042857
					CHANNELS 3 Zrotation Yrotation Xrotation
					JOINT Head
					{
						OFFSET 0.005152 0.064970 0.051349
						CHANNELS 3 Zrotation Yrotation Xrotation
						End Site
						{
							OFFSET 0.000000 0.000000 0.000000
						}
					}
				}
				JOINT LeftShoulder
				{
					OFFSET 0.078845 0.121749 -0.034090
					CHANNELS 3 Zrotation Yrotation Xrotation
					JOINT LeftArm
					{
						OFFSET 0.090977 0.030469 -0.008868
						CHANNELS 3 Zrotation Yrotation Xrotation
						JOINT LeftForeArm
						{
							OFFSET 0.259612 -0.012772 -0.027456
							CHANNELS 3 Zrotation Yrotation Xrotation
							JOINT LeftHand
							{
								OFFSET 0.249234 0.008986 -0.001171
								CHANNELS 3 Zrotation Yrotation Xrotation
								End Site
								{
									OFFSET 0.000000 0.000000 0.000000
								}
							}
						}
					}
				}
				JOINT RightShoulder
				{
					OFFSET -0.081759 0.118833 -0.038615
					CHANNELS 3 Zrotation Yrotation Xrotation
					JOINT RightArm
					{
						OFFSET -0.096012 0.032551 -0.009143
						CHANNELS 3 Zrotation Yrotation Xrotation
						JOINT RightForeArm
						{
							OFFSET -0.253742 -0.013329 -0.021401
							CHANNELS 3 Zrotation Yrotation Xrotation
							JOINT RightHand
							{
								OFFSET -0.255298 0.007772 -0.005559
								CHANNELS 3 Zrotation Yrotation Xrotation
								End Site
								{
									OFFSET 0.000000 0.000000 0.000000
								}
							}
						}
					}
				}
			}
		}
	}
}
MOTION
Frames: 8
Frame Time: 0.050000
0.018069 0.920560 -0.038328 -1.054371 -14.616050 3.027034 12.318377 0.394576 -4.724942 -10.047294 2.729679 13.820469 13.856294 26.831641 7.576473 0.000000 0.000000 0.000000 -8.656501 1.465713 -20.367276 2.827430 1.104921 24.503500 -0.994853 -3.839599 2.009724 0.000000 0.000000 0.000000 3.991572 -0.299086 3.206310 3.656426 -1.631773 -2.259536 -5.299541 -9.381410 2.944915 0.897279 -0.674902 1.146722 0.000000 0.000000 0.000000 17.306133 -19.815104 3.602585 -4.866237 -54.038956 2.241735 50.239813 -9.944293 -1.826467 0.000000 0.000000 0.000000 -1.662166 7.244966 2.472553 59.180525 57.470203 21.486801 -134.448354 51.647365 -100.042881 0.000000 0.000000 0.000000
0.023232 0.920495 -0.039258 0.301357 -13.042719 2.428698 11.101604 0.252044 -4.809521 -10.235402 2.675321 13.657180 12.344536 24.400386 6.740874 0.000000 0.000000 0.000000 -10.172562 1.162146 -19.106665 2.929235 0.900297 23.655781 -1.174780 -4.349445 2.232326 0.000000 0.000000 0.000000 4.661121 -0.307301 3.073107 1.792982 -0.810217 -3.155232 -5.588265 -6.367365 4.748257 1.795241 -1.518424 0.626410 0.000000 0.000000 0.000000 12.921613 -17.432222 4.046073 -12.826007 -58.648493 5.478545 64.366306 -19.746006 -8.502404 0.000000 0.000000 0.000000 -4.178890 7.045341 2.829638 53.478547 61.797229 21.609226 -122.562086 47.158831 -76.555998 0.000000 0.000000 0.000000
0.027647 0.919998 -0.039070 1.243119 -9.484574 1.766264 10.189299 0.089694 -5.334887 -9.788149 2.388653 14.251472 10.300129 20.990663 5.106143 0.000000 0.000000 0.000000 -12.060923 0.749940 -17.650987 3.532383 0.488937 23.727418 -2.486792 -6.955825 1.394422 0.000000 0.000000 0.000000 5.933552 -0.345298 3.082209 0.168671 -0.076821 -2.149038 -6.390770 -1.917450 4.472967 5.100527 -4.148722 -0.204419 0.000000 0.000000 0.000000 5.184075 -15.808406 5.031147 -24.201879 -58.639706 9.274235 84.883701 -37.370311 -29.444271 0.000000 0.000000 0.000000 -5.418701 7.060615 2.744182 39.188351 62.483629 16.036988 -108.951770 39.416283 -50.161205 0.000000 0.000000 0.000000
0.030096 0.917989 -0.038453 2.025090 -4.340690 0.607554 9.469019 -0.065543 -5.677188 -9.450152 2.063677 15.169281 7.871557 16.509465 2.169522 0.000000 0.000000 0.000000 -13.417810 0.315975 -14.106688 3.711549 0.063332 22.848434 -3.647183 -9.477724 0.990136 0.000000 0.000000 0.000000 7.114472 -0.416944 3.533323 -0.195335 0.124288 -2.647322 -7.960586 3.947678 5.995266 8.361445 -6.174603 -3.285164 0.000000 0.000000 0.000000 -0.062103 -14.742747 4.914484 -33.694764 -56.553809 11.403968 106.036460 -50.888023 -61.293063 0.000000 0.000000 0.000000 -7.817421 4.623747 1.640080 30.341309 59.652993 12.525066 -97.707515 33.089444 -31.354243 0.000000 0.000000 0.000000
0.030298 0.915681 -0.037887 1.715364 -1.072384 0.476452 10.032471 -0.125001 -6.972545 -10.061398 2.125656 16.813768 7.655314 15.927433 0.914357 0.000000 0.000000 0.000000 -13.621594 0.145167 -12.557557 4.176580 -0.301502 22.693935 -4.874115 -12.389184 1.054940 0.000000 0.000000 0.000000 7.935555 -0.450792 3.453929 -1.063965 0.546192 -2.894634 -7.293157 7.718701 7.091632 10.648202 -7.441542 -4.905926 0.000000 0.000000 0.000000 -3.588480 -13.914014 4.273177 -37.287542 -52.807881 10.951709 126.900013 -55.553579 -91.343929 0.000000 0.000000 0.000000 -8.382788 3.256664 0.829775 27.789570 55.889026 11.232780 -91.894356 30.826259 -23.809398 0.000000 0.000000 0.000000
0.029517 0.912927 -0.037352 0.838592 2.719392 0.360031 11.259957 -0.172548 -8.453144 -10.326579 2.024374 18.489026 7.314888 14.940624 -0.594036 0.000000 0.000000 0.000000 -13.020116 0.029436 -11.097857 5.394975 -0.954984 22.500644 -5.965189 -14.988023 1.207951 0.000000 0.000000 0.000000 7.726372 -0.408722 2.982694 -0.695867 0.392524 -2.089175 -7.016717 8.502729 7.139298 11.552171 -7.857066 -5.558550 0.000000 0.000000 0.000000 -4.266872 -13.142014 3.721455 -39.399700 -51.359917 10.967800 136.568675 -55.536056 -105.178450 0.000000 0.000000 0.000000 -7.621881 2.168289 0.347781 29.924398 52.348906 11.565832 -90.114490 32.297898 -23.111657 0.000000 0.000000 0.000000
0.029139 0.911311 -0.037513 -0.092202 4.013930 0.621895 12.344864 -0.159233 -9.952255 -10.139524 1.941047 19.927219 7.025433 14.144099 -1.587146 0.000000 0.000000 0.000000 -11.777829 0.090226 -10.917264 5.305658 -1.022429 22.228184 -6.208418 -15.561164 0.969895 0.000000 0.000000 0.000000 7.455556 -0.363962 2.527374 -0.597492 0.348393 -1.874205 -6.249366 8.851190 7.358917 11.905366 -8.087744 -5.609093 0.000000 0.000000 0.000000 -3.676966 -13.137656 3.706288 -40.028664 -51.942089 11.214158 137.585616 -55.289142 -106.685768 0.000000 0.000000 0.000000 -6.253804 1.888171 0.287436 32.608470 49.524799 11.762943 -93.928131 34.964369 -26.796011 0.000000 0.000000 0.000000
0.029934 0.909425 -0.038311 -1.303748 5.386026 1.271626 13.942755 -0.112546 -11.960290 -10.205507 1.906428 21.252573 7.361228 14.781029 -1.687818 0.000000 0.000000 0.000000 -10.509383 0.171326 -11.263622 5.558119 -1.209016 22.066553 -6.311748 -15.821830 0.639819 0.000000 0.000000 0.000000 7.028029 -0.290250 1.727307 0.224869 -0.020486 -1.903835 -6.085013 8.130769 7.294895 11.455798 -7.482444 -6.364428 0.000000 0.000000 0.000000 -2.753370 -13.715277 3.995024 -39.793235 -52.109616 11.113227 135.702590 -55.632878 -104.536165 0.000000 0.000000 0.000000 -4.137756 1.950502 0.455359 33.270875 48.545802 11.486640 -95.587407 36.215597 -28.840576 0.000000 0.000000 0.000000
